<?xml version="1.0" standalone="no"?>
<!DOCTYPE svg PUBLIC "-//W3C//DTD SVG 20010904//EN"
 "http://www.w3.org/TR/2001/REC-SVG-20010904/DTD/svg10.dtd">
<svg version="1.0" xmlns="http://www.w3.org/2000/svg"
 width="474.000000pt" height="326.000000pt" viewBox="0 0 474.000000 326.000000"
 preserveAspectRatio="xMidYMid meet">

<g transform="translate(0.000000,326.000000) scale(0.100000,-0.100000)"
fill="#000000" stroke="none">
<path d="M1840 2845 c-30 -9 -73 -27 -95 -40 -130 -76 -229 -261 -211 -396 4
-29 2 -50 -4 -54 -26 -16 -53 -92 -53 -148 l1 -59 -30 29 c-43 41 -65 81 -98
179 -36 106 -68 150 -118 163 -54 15 -416 41 -565 41 -96 0 -135 -4 -158 -16
-33 -17 -97 -109 -154 -224 -20 -41 -64 -112 -97 -157 -85 -119 -111 -181
-116 -278 -4 -77 -2 -88 51 -243 112 -327 133 -434 143 -735 l7 -217 -51 0
c-78 0 -82 -4 -82 -71 l0 -59 2230 0 2231 0 -3 63 -3 62 -531 3 c-516 2 -532
3 -537 21 -4 15 -15 20 -48 23 l-44 3 0 80 0 80 263 3 262 2 -2 553 -3 552
-710 3 c-390 2 -729 0 -752 -3 l-43 -6 -2 -376 -3 -377 -90 76 c-49 41 -130
112 -180 158 -115 105 -236 204 -292 237 -24 13 -43 28 -43 33 0 4 17 10 38
14 66 11 97 38 138 123 23 46 54 92 76 111 51 45 73 116 58 189 -15 69 -15 67
22 71 80 9 129 85 129 202 0 88 -25 146 -81 185 -21 14 -50 43 -64 63 -80 115
-249 175 -386 137z m235 -34 c64 -29 128 -80 146 -114 10 -18 9 -19 -27 -13
-22 4 -73 24 -114 44 -65 32 -84 37 -145 37 -88 -1 -159 -31 -214 -90 -52 -57
-78 -109 -99 -203 -19 -80 -36 -98 -68 -71 -12 10 -15 24 -10 60 15 114 77
234 150 293 119 97 253 117 381 57z m-152 -370 c106 -12 123 -21 143 -72 9
-22 36 -56 59 -77 l43 -37 -13 -77 c-30 -171 -67 -284 -111 -345 -72 -97 -260
-76 -346 40 -25 35 -78 137 -78 151 0 2 20 14 44 26 34 16 50 32 66 65 21 44
28 123 15 164 -5 16 -1 23 18 30 36 14 38 33 12 112 -14 40 -25 74 -25 75 0 1
19 -8 43 -21 29 -17 71 -27 130 -34z m-333 -133 c0 -51 -3 -68 -14 -68 -16 0
-26 30 -26 86 0 45 3 51 25 51 12 0 15 -15 15 -69z m78 52 c66 -40 91 -153 53
-237 -35 -76 -123 -97 -180 -44 -17 16 -31 35 -31 43 1 10 4 9 13 -3 16 -21
51 -39 77 -39 34 0 86 59 95 107 9 58 -22 130 -65 144 -28 10 -38 28 -23 42
11 11 26 8 61 -13z m-142 -52 c-18 -26 -22 -17 -5 14 6 11 13 17 16 15 3 -3
-2 -16 -11 -29z m-1114 -89 c78 -53 169 -145 206 -210 l29 -50 -24 -47 c-30
-58 -26 -108 11 -157 14 -18 26 -36 26 -39 0 -2 -25 -38 -55 -78 -30 -40 -70
-101 -88 -135 l-32 -62 38 -188 c70 -351 94 -563 62 -563 -8 0 -15 -4 -15 -10
0 -6 114 -10 322 -10 309 0 390 4 244 12 -78 4 -93 18 -47 42 38 20 94 20 131
1 33 -17 36 -25 18 -43 -9 -9 1 -12 45 -12 31 0 57 5 57 10 0 6 -4 10 -8 10
-5 0 -14 11 -20 25 -20 42 -69 65 -142 65 -68 0 -96 -12 -132 -55 -25 -29 -24
1 2 42 27 45 72 56 212 51 107 -3 119 -5 142 -27 31 -29 45 -89 25 -102 -8 -5
-26 -8 -41 -6 -16 2 -28 0 -28 -5 0 -4 90 -8 200 -8 l200 0 0 -50 0 -50 -765
0 -765 0 0 50 0 50 98 1 c53 1 100 1 105 0 4 0 7 4 7 9 0 6 -7 10 -16 10 -15
0 -16 14 -10 138 15 286 -26 515 -166 939 l-70 213 26 55 c14 31 45 82 68 113
24 31 51 69 61 85 10 15 20 27 23 27 3 0 32 -19 66 -41z m1795 -43 c8 -66 -4
-112 -39 -152 -17 -19 -32 -33 -34 -31 -3 2 4 42 15 88 11 46 22 101 26 123 8
49 25 35 32 -28z m-704 -71 c36 -36 72 -65 81 -65 23 0 36 -32 36 -89 l0 -50
-94 45 c-51 24 -101 44 -111 44 -16 0 -95 20 -104 26 -8 7 105 154 119 154 4
0 37 -29 73 -65z m-126 -125 c25 -11 51 -33 63 -52 11 -18 20 -26 20 -18 0 9
-7 26 -16 38 -21 30 -3 29 65 -6 l55 -27 37 -150 c71 -288 101 -331 168 -247
25 32 100 173 114 215 8 25 185 -107 348 -259 57 -53 138 -123 179 -157 41
-33 81 -66 89 -73 11 -10 -4 -38 -95 -169 -59 -86 -113 -159 -119 -161 -6 -3
-56 20 -110 49 -55 30 -128 66 -162 82 -35 16 -63 31 -63 34 0 3 38 40 85 81
47 41 85 78 85 83 0 5 -33 -20 -74 -57 -41 -36 -77 -66 -81 -66 -3 0 14 38 39
84 26 45 46 89 46 97 0 21 -127 -218 -146 -276 -9 -27 -18 -51 -19 -53 -4 -4
-348 46 -440 64 -79 16 -195 53 -247 80 -26 13 -26 14 -13 56 7 24 74 144 149
267 74 124 133 227 131 230 -7 6 5 24 -152 -239 -78 -129 -143 -246 -145 -260
l-3 -25 -150 -3 c-145 -3 -227 8 -241 30 -4 5 26 76 66 156 40 81 106 213 146
295 106 213 186 320 269 358 50 23 70 23 122 -1z m1203 -530 c0 -533 0 -540
-20 -540 -19 0 -20 7 -21 153 -3 693 -3 919 0 923 2 2 13 4 23 4 17 0 18 -23
18 -540z m-888 413 c13 -17 40 -42 61 -55 77 -47 75 -35 21 -136 -27 -51 -52
-92 -55 -92 -20 0 -79 240 -79 317 1 36 2 37 15 18 8 -11 24 -34 37 -52z m-45
-99 c26 -126 48 -190 68 -198 10 -3 30 25 67 94 29 55 58 100 65 100 28 0 22
-28 -26 -125 -54 -109 -93 -154 -117 -134 -24 20 -70 170 -118 382 -4 17 -2
17 17 4 16 -11 26 -38 44 -123z m-557 81 c0 -2 -9 -19 -20 -37 l-20 -33 -154
0 c-146 0 -156 -1 -186 -23 -31 -23 -32 -23 -52 -5 -25 21 -51 80 -43 93 6 10
475 15 475 5z m-206 -367 c8 -13 -5 -46 -59 -155 -39 -76 -70 -148 -70 -160
-1 -27 -13 -41 -19 -22 -10 32 -26 174 -26 234 0 72 17 99 67 111 16 3 33 7
38 9 24 7 59 -2 69 -17z m2604 -490 l2 -298 -160 0 -160 0 0 293 c0 162 3 297
7 301 4 3 75 5 157 4 l151 -3 3 -297z m-972 -115 c-4 -5 -166 87 -166 94 0 3
37 59 83 125 l82 120 3 -167 c1 -92 1 -170 -2 -172z m-1531 257 c168 -7 171
-7 260 -45 146 -62 441 -114 704 -124 131 -5 166 -9 172 -21 5 -8 19 -42 32
-75 13 -33 32 -77 41 -97 l16 -38 -34 0 c-34 0 -36 2 -50 51 -9 28 -18 66 -22
85 -3 19 -11 34 -16 34 -6 0 -7 -7 -4 -16 26 -69 31 -154 8 -154 -4 0 -18 34
-30 76 -13 42 -25 74 -28 71 -3 -3 2 -29 10 -58 22 -73 21 -89 -7 -89 -20 0
-26 10 -46 71 -12 39 -25 68 -28 65 -4 -4 13 -64 35 -123 3 -10 -12 -13 -56
-13 l-61 0 -7 35 c-3 20 -4 38 -1 41 10 10 47 -17 47 -34 0 -14 2 -15 9 -2 13
20 8 25 -56 54 l-56 26 -136 -11 c-353 -30 -842 38 -941 131 -35 33 -35 35 6
129 21 48 26 53 46 46 13 -5 100 -11 193 -15z m1041 -104 c40 -19 114 -57 164
-85 49 -28 93 -51 98 -51 4 0 16 14 25 30 10 17 22 30 26 30 7 0 180 -96 190
-106 9 -8 -29 -74 -42 -74 -8 0 -26 -9 -40 -20 -21 -17 -40 -20 -124 -20 l-98
0 -32 73 c-17 39 -41 93 -52 120 l-20 47 -105 0 c-98 0 -106 1 -106 20 0 25
21 70 32 70 5 0 43 -15 84 -34z m-1196 -115 c43 -15 55 -24 54 -40 0 -12 -1
-56 -2 -100 -2 -77 -3 -79 -29 -84 -15 -3 -32 -3 -39 0 -13 5 -54 243 -41 243
1 0 27 -9 57 -19z m1758 -23 c-2 -6 -12 -16 -21 -22 -13 -8 -20 -7 -27 4 -16
24 -12 30 21 30 19 0 29 -4 27 -12z m72 0 c0 -7 -10 -46 -21 -85 -21 -69 -23
-73 -52 -73 -24 0 -28 3 -22 18 4 9 16 43 26 76 11 32 22 62 25 67 8 14 44 11
44 -3z m83 -15 c-30 -124 -28 -118 -59 -118 -26 0 -29 3 -27 30 1 17 7 49 14
73 11 39 14 42 45 42 32 0 34 -2 27 -27z m83 -10 c-3 -21 -11 -55 -16 -75 -10
-35 -14 -38 -45 -38 -19 0 -35 3 -35 6 0 11 32 128 36 136 3 5 19 8 36 8 30 0
30 -1 24 -37z m74 15 c-1 -48 -59 -143 -76 -125 -4 3 1 38 11 77 15 62 20 70
41 70 18 0 24 -5 24 -22z m255 -63 l0 -80 -159 -3 -160 -3 21 23 c25 27 62
105 63 131 0 16 10 17 118 15 l117 -3 0 -80z m-2020 26 l40 -9 -33 -1 c-74 -2
-132 -53 -132 -116 0 -22 -4 -25 -34 -25 -19 0 -40 -2 -48 -5 -7 -3 -19 -1
-27 4 -11 7 -12 28 -6 103 l7 94 96 -18 c53 -10 115 -22 137 -27z m1443 -18
c-21 -77 -35 -93 -78 -93 -44 0 -54 16 -16 26 14 3 36 25 55 55 37 59 54 64
39 12z m-747 7 c14 -8 19 -21 19 -55 l0 -45 -126 0 c-117 0 -126 -1 -131 -20
-5 -18 -14 -20 -78 -20 l-72 0 -6 41 c-3 23 -15 52 -28 65 l-22 24 124 1 c102
1 208 8 287 17 7 1 22 -3 33 -8z m824 -90 c3 -5 -1 -10 -9 -10 -9 0 -16 5 -16
10 0 6 4 10 9 10 6 0 13 -4 16 -10z m-629 -33 c4 -4 5 -9 3 -12 -3 -2 -95 -5
-206 -6 -194 -1 -250 5 -207 22 24 10 400 7 410 -4z m1124 -2 c0 -7 -193 -11
-555 -13 -339 -1 -555 1 -555 7 0 5 8 11 18 13 43 9 1092 2 1092 -7z m414 9
c29 -11 16 -24 -24 -24 -38 0 -54 13 -27 23 18 8 33 8 51 1z"/>
<path d="M1845 2315 c6 -2 22 -6 37 -9 14 -3 40 -18 57 -32 17 -14 31 -21 31
-15 0 19 -74 61 -105 60 -16 0 -25 -2 -20 -4z"/>
<path d="M2090 2269 c0 -5 5 -7 11 -4 5 4 19 -1 30 -11 20 -18 27 -6 7 14 -15
15 -48 16 -48 1z"/>
<path d="M2040 2229 c-30 -49 -35 -77 -22 -126 16 -60 16 -61 -20 -72 l-33 -9
31 -1 c49 -1 59 19 38 75 -15 39 -16 51 -4 82 7 21 19 45 28 55 8 9 12 20 9
23 -3 4 -15 -9 -27 -27z"/>
<path d="M1883 2209 c-4 -14 -12 -19 -24 -16 -30 8 -21 -7 14 -24 l33 -16 1
38 c2 41 -15 54 -24 18z"/>
<path d="M2067 2193 c-13 -12 -7 -53 7 -53 14 0 29 37 20 52 -6 10 -18 10 -27
1z"/>
<path d="M1769 2063 c-4 -37 6 -101 18 -115 23 -25 51 -23 55 5 2 14 11 23 27
25 22 3 20 6 -18 29 -32 19 -42 30 -38 44 4 15 0 19 -19 19 -13 0 -24 -3 -25
-7z m71 -75 c1 -18 -20 -16 -34 4 -9 12 -16 18 -16 13 0 -5 9 -19 21 -31 11
-12 16 -25 11 -28 -18 -11 -45 31 -38 59 6 25 7 25 31 8 13 -10 25 -21 25 -25z"/>
<path d="M498 673 c12 -2 32 -2 45 0 12 2 2 4 -23 4 -25 0 -35 -2 -22 -4z"/>
<path d="M2240 852 c0 -18 22 -62 31 -62 5 0 3 12 -3 28 -15 33 -28 50 -28 34z"/>
<path d="M2221 815 c0 -18 28 -61 29 -44 0 8 -7 24 -15 35 -8 10 -14 15 -14 9z"/>
</g>
</svg>
